<svg id="Layer_1" data-name="Layer 1" xmlns="http://www.w3.org/2000/svg" viewBox="0 0 100.59523 100.59523"><defs><style>.cls-1{fill:#5705d8;}</style></defs><path class="cls-1" d="M3.46237,97.18036a5.797,5.797,0,0,1-1.805-4.32253V15.81244a5.843,5.843,0,0,1,1.805-4.275,5.843,5.843,0,0,1,4.275-1.805H21.89247v-6.08a1.90745,1.90745,0,0,1,.6175-1.3775,2.01029,2.01029,0,0,1,1.47251-.61751,1.90746,1.90746,0,0,1,1.3775.61751,1.90746,1.90746,0,0,1,.61751,1.3775v6.08H74.61774v-6.08a1.98314,1.98314,0,0,1,.57-1.3775,1.85868,1.85868,0,0,1,1.425-.61751,2.0103,2.0103,0,0,1,1.47251.61751,1.90745,1.90745,0,0,1,.6175,1.3775v6.08H92.85783a5.843,5.843,0,0,1,4.275,1.805,5.84306,5.84306,0,0,1,1.805,4.275V92.85783a5.797,5.797,0,0,1-1.805,4.32253,5.92168,5.92168,0,0,1-4.275,1.7575H7.73739A5.92168,5.92168,0,0,1,3.46237,97.18036ZM94.85284,15.81244a1.98318,1.98318,0,0,0-.57-1.37751,1.85867,1.85867,0,0,0-1.425-.61751H78.70276V23.98248a1.85865,1.85865,0,0,1-.6175,1.425,2.09652,2.09652,0,0,1-1.47251.57,1.98315,1.98315,0,0,1-1.37751-.57,1.85865,1.85865,0,0,1-.6175-1.425V13.81742H25.97749V23.98248a1.94811,1.94811,0,0,1-1.995,1.995,2.0965,2.0965,0,0,1-1.47251-.57,1.85865,1.85865,0,0,1-.6175-1.425V13.81742H7.73739a1.85866,1.85866,0,0,0-1.425.61751,1.98315,1.98315,0,0,0-.57,1.37751V30.06251H94.85284ZM6.31239,94.28284a1.93339,1.93339,0,0,0,1.425.57H92.85783a1.94808,1.94808,0,0,0,1.995-1.995V34.05253H5.74238v58.8053A1.93337,1.93337,0,0,0,6.31239,94.28284Z"/></svg>