<svg id="Layer_1" data-name="Layer 1" xmlns="http://www.w3.org/2000/svg" viewBox="0 0 566.92913 134.22823"><defs><style>.cls-1{fill:#fff;}</style></defs><path class="cls-1" d="M162.59606,32.332V103.73a1.03477,1.03477,0,0,1-1.03476,1.03477H147.76169a1.03477,1.03477,0,0,1-1.03477-1.03477v-6.5703a1.03249,1.03249,0,0,0-1.79992-.69495c-5.57714,6.41656-13.61941,10.2104-23.91368,10.2104-19.984,0-36.58776-16.89786-36.58776-38.64417,0-21.89334,16.60379-38.64416,36.58776-38.64416,10.29768,0,18.34187,3.79635,23.91922,10.10974a1.03258,1.03258,0,0,0,1.79438-.70131V32.332a1.03477,1.03477,0,0,1,1.03477-1.03477H161.5613A1.03476,1.03476,0,0,1,162.59606,32.332ZM146.72692,68.031c0-13.66521-9.992-23.50966-23.2156-23.50966-13.22463,0-23.21662,9.84445-23.21662,23.50966,0,13.66471,9.992,23.50966,23.21662,23.50966C136.73493,91.54063,146.72692,81.69568,146.72692,68.031Z"/><path class="cls-1" d="M230.3978,84.04665c0,14.69391-12.783,22.62849-28.65217,22.62849-14.28916,0-24.68706-6.253-29.573-16.32671a1.03977,1.03977,0,0,1,.42193-1.34353l11.80368-6.85326a1.02522,1.02522,0,0,1,1.45642.46221c2.58361,5.97071,8.25255,9.5144,15.891,9.5144,7.05239,0,12.489-2.351,12.489-8.22813,0-13.0776-39.52534-5.73064-39.52534-32.03235,0-13.81174,11.90186-22.481,26.88883-22.481,11.66871,0,21.407,5.23637,26.682,14.37472a1.03642,1.03642,0,0,1-.40114,1.41292l-11.50646,6.44847a1.042,1.042,0,0,1-1.42538-.3877c-2.75588-5.08971-7.659-7.44855-13.349-7.44855-5.72963,0-10.72562,2.498-10.72562,7.78754C190.87247,64.94536,230.3978,56.86376,230.3978,84.04665Z"/><path class="cls-1" d="M304.45189,31.29719a1.03477,1.03477,0,0,1,.96981,1.39563l-27.69229,74.4229c-6.76959,18.29246-18.48074,27.68981-34.8574,27.08506a1.04206,1.04206,0,0,1-.99471-1.041v-12.778a1.04008,1.04008,0,0,1,1.07314-1.03025c9.59087.168,14.91-5.06943,18.4534-14.398.0104-.02738.0224-.05488.03549-.08108l.49961-.9992a1.0348,1.0348,0,0,0,.02447-.87294L231.628,32.74214a1.03476,1.03476,0,0,1,.95-1.44495h15.07075a1.03479,1.03479,0,0,1,.95727.64184l20.59979,50.185a1.03476,1.03476,0,0,0,1.93313-.04883l17.66165-50.08736a1.03478,1.03478,0,0,1,.97588-.69066Z"/><path class="cls-1" d="M384.55661,32.70794l-27.84506,71.398a1.03478,1.03478,0,0,1-.964.6588H338.7946a1.03478,1.03478,0,0,1-.964-.6588l-27.84506-71.398a1.03477,1.03477,0,0,1,.964-1.41075h15.10268a1.03479,1.03479,0,0,1,.971.677L346.37035,84.4878a1.03477,1.03477,0,0,0,1.94277-.00226l19.20677-52.509a1.03475,1.03475,0,0,1,.97179-.6793h15.10089A1.03477,1.03477,0,0,1,384.55661,32.70794Z"/><path class="cls-1" d="M392.89485,10.1385c0-7.57848,8.39006-13.26189,16.35728-8.23345a1.28877,1.28877,0,0,1,.20925.16537c7.93523,7.75538,1.89576,18.20659-6.428,18.20659A10.2545,10.2545,0,0,1,392.89485,10.1385Zm3.2387,21.15869h13.79961a1.03477,1.03477,0,0,1,1.03477,1.03477V103.73a1.03477,1.03477,0,0,1-1.03477,1.03477H396.13355a1.03477,1.03477,0,0,1-1.03476-1.03477V32.332A1.03476,1.03476,0,0,1,396.13355,31.29719Z"/><path class="cls-1" d="M480.64714,84.04665c0,14.69391-12.784,22.62849-28.65319,22.62849-14.28817,0-24.687-6.253-29.573-16.32671a1.03976,1.03976,0,0,1,.42193-1.34353l11.8038-6.85333a1.02523,1.02523,0,0,1,1.45638.4621c2.58442,5.97082,8.25334,9.51458,15.89092,9.51458,7.05341,0,12.49-2.351,12.49-8.22813,0-13.0776-39.52533-5.73064-39.52533-32.03235,0-13.81174,11.90085-22.481,26.88883-22.481,11.66774,0,21.407,5.23638,26.68105,14.37474a1.03643,1.03643,0,0,1-.40117,1.41286L466.62072,51.623a1.04178,1.04178,0,0,1-1.42516-.38773c-2.755-5.08971-7.65814-7.44855-13.34813-7.44855-5.73064,0-10.72663,2.498-10.72663,7.78754C441.1208,64.94536,480.64714,56.86376,480.64714,84.04665Z"/><path class="cls-1" d="M489.4963,10.1385c0-7.57848,8.39007-13.26189,16.35728-8.23345a1.28928,1.28928,0,0,1,.20926.16537c7.93522,7.75538,1.89575,18.20659-6.428,18.20659A10.2545,10.2545,0,0,1,489.4963,10.1385ZM492.735,31.29719h13.79961a1.03477,1.03477,0,0,1,1.03477,1.03477V103.73a1.03477,1.03477,0,0,1-1.03477,1.03477H492.735a1.03477,1.03477,0,0,1-1.03477-1.03477V32.332A1.03477,1.03477,0,0,1,492.735,31.29719Z"/><path class="cls-1" d="M549.74429,46.57822a1.03476,1.03476,0,0,0-1.03476,1.03477V81.84271c0,9.11594,5.79911,9.25688,17.12948,8.72169a1.03947,1.03947,0,0,1,1.09012,1.03292V103.8396a1.04516,1.04516,0,0,1-.92624,1.03287c-23.71043,2.65642-33.16251-4.17164-33.16251-23.02976V47.613a1.03477,1.03477,0,0,0-1.03477-1.03477H520.35747a1.03477,1.03477,0,0,1-1.03477-1.03477V32.332a1.03477,1.03477,0,0,1,1.03477-1.03477h11.44814a1.03477,1.03477,0,0,0,1.03477-1.03477V16.20068a1.03476,1.03476,0,0,1,.7408-.99213l13.79961-4.08874a1.03477,1.03477,0,0,1,1.32874.99213V30.26242a1.03476,1.03476,0,0,0,1.03476,1.03477h16.15008a1.03476,1.03476,0,0,1,1.03476,1.03477V45.54345a1.03476,1.03476,0,0,1-1.03476,1.03477Z"/><path class="cls-1" d="M38.94929,29.38679C15.88022,29.38679.15861,46.28465.15861,68.031A43.86014,43.86014,0,0,0,.55306,73.898a1.03884,1.03884,0,0,0,1.03271.89176H74.3414a1.03131,1.03131,0,0,0,1.02534-.89046,43.81375,43.81375,0,0,0,.46337-5.72135C75.83011,47.01929,60.84314,29.38679,38.94929,29.38679ZM17.9091,61.85973a1.03173,1.03173,0,0,1-1.01136-1.26386c2.55451-10.29268,10.46467-16.80922,21.905-16.80922,9.23259,0,18.19131,5.08078,20.76847,16.83546a1.032,1.032,0,0,1-1.01672,1.23762Z"/><path class="cls-1" d="M75.22645,85.95006l-9.47639-5.53688a2.49379,2.49379,0,0,0-3.41128.89514l-.37042.634a2.4938,2.4938,0,0,0,.89515,3.41126l1.29761.75817a1.18589,1.18589,0,0,1,.36412,1.728,32.9088,32.9088,0,0,1-52.58824,0,1.18589,1.18589,0,0,1,.36412-1.728l1.29762-.75817a2.49378,2.49378,0,0,0,.89514-3.41126l-.3704-.634a2.49378,2.49378,0,0,0-3.41131-.89512l-9.47608,5.5369A2.49379,2.49379,0,0,0,.341,89.36137l.37042.634a2.49381,2.49381,0,0,0,3.41133.89511l1.15458-.67463a1.18591,1.18591,0,0,1,1.56371.344,38.62192,38.62192,0,0,0,62.78018-.00005,1.18592,1.18592,0,0,1,1.56369-.344l1.15477.67475a2.4938,2.4938,0,0,0,3.41123-.89495l.37058-.63415A2.4938,2.4938,0,0,0,75.22645,85.95006Z"/></svg>