<svg xmlns="http://www.w3.org/2000/svg" viewBox="0 0 292.68 88.72"><defs><style>.cls-1{fill:#4c95c5;}.cls-2{fill:#00909e;}.cls-3{fill:#0067ac;}.cls-4{fill:#f60;}.cls-5{fill:#5705d8;}</style></defs><title>IPN_York General Practice</title><g id="Symbol"><polygon class="cls-1" points="43.29 14.79 39.13 13.38 39.54 24 31.79 22.88 32.08 11 27.8 9.56 28.57 0 42.65 7.22 43.29 14.79"/><polygon class="cls-2" points="26.82 22.2 31.79 22.88 31.49 32.21 23.28 32.4 23.86 26.16 13.55 25.4 16.72 5.93 27.8 9.56 26.82 22.2"/><polygon class="cls-1" points="13.55 25.4 12.41 32.76 23.28 32.4 22.31 43.15 10.57 44.98 9.29 52.68 0 54.76 5.7 24.8 13.55 25.4"/><polygon class="cls-1" points="62.06 40.96 60.88 37.62 49.03 39.29 47.97 32.02 59.07 32.06 57.89 28.61 65.62 29.18 71.26 38.87 62.06 40.96"/><polygon class="cls-1" points="23.4 66.07 30.34 63.15 30.83 50.84 40.28 48.32 40.46 59.01 47.46 56.14 48.26 62.91 22.66 76 23.4 66.07"/><polygon class="cls-2" points="46.53 46.74 40.34 48.38 40.23 40.58 49.03 39.29 49.69 43.7 62.08 40.97 65 48.94 47.46 56.14 46.53 46.74"/><polygon class="cls-2" points="24.43 52.43 30.83 50.84 31.11 41.8 22.31 43.15 21.62 49.93 9.29 52.68 6.23 73.03 23.42 66.12 24.43 52.43"/><polygon class="cls-2" points="44.26 24.65 39.54 24 39.88 32.09 48 32.07 47.42 27.83 57.93 28.61 54.72 18.63 43.29 14.79 44.26 24.65"/><polygon class="cls-3" points="31.79 22.88 26.82 22.2 27.8 9.56 32.08 11 31.79 22.88"/><polygon class="cls-3" points="44.26 24.65 39.54 24 39.13 13.38 43.29 14.79 44.26 24.65"/><polygon class="cls-3" points="60.88 37.62 62.08 40.97 49.69 43.7 49.03 39.29 60.88 37.62"/><polygon class="cls-3" points="57.93 28.61 59.07 32.06 48 32.07 47.42 27.83 57.93 28.61"/><polygon class="cls-3" points="21.62 49.93 9.29 52.68 10.57 44.98 22.31 43.15 21.62 49.93"/><polygon class="cls-3" points="23.86 26.16 23.28 32.4 12.37 32.77 13.55 25.4 23.86 26.16"/><polygon class="cls-3" points="30.34 63.15 23.42 66.12 24.43 52.43 30.83 50.84 30.34 63.15"/><polygon class="cls-3" points="47.46 56.14 40.46 59.01 40.28 48.32 46.53 46.74 47.46 56.14"/></g><g id="Text"><path class="cls-3" d="M83.27,15.25h2.1l6.17,9.05,6.14-9h2.13l-7.4,10.5V33.1H90.62V25.75Z" transform="translate(0 -0.88)"/><path class="cls-3" d="M107.09,20.38a6.22,6.22,0,0,1,2,1.47A6.35,6.35,0,0,1,110.33,24a8.48,8.48,0,0,1,0,5.27,6.21,6.21,0,0,1-1.23,2.16,5.94,5.94,0,0,1-2,1.47,7.37,7.37,0,0,1-5.49,0,5.76,5.76,0,0,1-2-1.47,6.21,6.21,0,0,1-1.23-2.16,8.48,8.48,0,0,1,0-5.27,6.35,6.35,0,0,1,1.23-2.17,6,6,0,0,1,2-1.47,7.13,7.13,0,0,1,5.49,0Zm-4.82,1.25a4.39,4.39,0,0,0-1.48,1.25,5.64,5.64,0,0,0-.9,1.76,6.92,6.92,0,0,0,0,4,5.75,5.75,0,0,0,.9,1.76,4.39,4.39,0,0,0,1.48,1.25,4.82,4.82,0,0,0,4.15,0,4.49,4.49,0,0,0,1.48-1.25,5.72,5.72,0,0,0,.89-1.76,6.7,6.7,0,0,0,0-4,5.61,5.61,0,0,0-.89-1.76,4.49,4.49,0,0,0-1.48-1.25,4.73,4.73,0,0,0-4.15,0Z" transform="translate(0 -0.88)"/><path class="cls-3" d="M114.63,20.2v3h.05a5,5,0,0,1,1.95-2.43A5.39,5.39,0,0,1,119.8,20V21.6a5.36,5.36,0,0,0-2,.29,4.9,4.9,0,0,0-1.59,1,4.6,4.6,0,0,0-1,1.49,4.89,4.89,0,0,0-.36,1.89V33.1H113.1V20.2Z" transform="translate(0 -0.88)"/><path class="cls-3" d="M123,15.25v11.2l7.5-6.25h2.21L127,25l6.17,8.12h-2.07l-5.36-7L123,28.2v4.9h-1.66V15.25Z" transform="translate(0 -0.88)"/><path class="cls-3" d="M96.42,62a7.33,7.33,0,0,1-2.7.53,9.92,9.92,0,0,1-3.87-.71,8.26,8.26,0,0,1-2.9-2,8.59,8.59,0,0,1-1.81-2.94,10.31,10.31,0,0,1-.63-3.64,10.66,10.66,0,0,1,.63-3.71,8.81,8.81,0,0,1,1.81-3,8.35,8.35,0,0,1,2.9-2,9.92,9.92,0,0,1,3.87-.72,9.78,9.78,0,0,1,2.8.41A8.31,8.31,0,0,1,99,45.45a7.1,7.1,0,0,1,1.8,2,6.37,6.37,0,0,1,.86,2.7H97.68a3.7,3.7,0,0,0-1.41-2.25,4.27,4.27,0,0,0-2.55-.75,5,5,0,0,0-2.36.51A4.4,4.4,0,0,0,89.78,49a6,6,0,0,0-.88,2,9.47,9.47,0,0,0-.27,2.27,8.88,8.88,0,0,0,.27,2.19,5.86,5.86,0,0,0,.88,1.91,4.57,4.57,0,0,0,1.58,1.37,5,5,0,0,0,2.36.51,4.59,4.59,0,0,0,3.16-1,4.16,4.16,0,0,0,1.3-2.86H94V52.45h7.87V62.1H99.29l-.42-2A6.16,6.16,0,0,1,96.42,62Z" transform="translate(0 -0.88)"/><path class="cls-3" d="M109,59a3.95,3.95,0,0,0,4.35.24,2.23,2.23,0,0,0,1-1.14h3.28a6,6,0,0,1-2.41,3.33,7.37,7.37,0,0,1-3.94,1,8,8,0,0,1-2.89-.49,5.94,5.94,0,0,1-3.55-3.54,7.75,7.75,0,0,1,0-5.45,6.2,6.2,0,0,1,1.42-2.16,6.62,6.62,0,0,1,2.19-1.44,7.34,7.34,0,0,1,2.82-.52,6.65,6.65,0,0,1,3,.64,5.82,5.82,0,0,1,2.11,1.71,7,7,0,0,1,1.2,2.45,8.79,8.79,0,0,1,.26,2.87h-9.79A3.47,3.47,0,0,0,109,59Zm4.21-6.8a2.71,2.71,0,0,0-2-.7,3.44,3.44,0,0,0-1.49.29,2.77,2.77,0,0,0-.94.71,2.53,2.53,0,0,0-.5.9,3.86,3.86,0,0,0-.17.85h6.06A4,4,0,0,0,113.19,52.2Z" transform="translate(0 -0.88)"/><path class="cls-3" d="M123.67,49.18V51h.08a4.26,4.26,0,0,1,1.84-1.64,5.54,5.54,0,0,1,2.31-.51,6.51,6.51,0,0,1,2.45.39,3.48,3.48,0,0,1,1.51,1.07,4.08,4.08,0,0,1,.78,1.68,9.75,9.75,0,0,1,.22,2.18v8h-3.73V54.8a4.33,4.33,0,0,0-.52-2.38,2.06,2.06,0,0,0-1.86-.79,2.65,2.65,0,0,0-2.21.86,4.6,4.6,0,0,0-.68,2.84V62.1h-3.73V49.18Z" transform="translate(0 -0.88)"/><path class="cls-3" d="M139.75,59a3.41,3.41,0,0,0,2.41.78,3.46,3.46,0,0,0,2-.54,2.25,2.25,0,0,0,1-1.14h3.29A6,6,0,0,1,146,61.43a7.37,7.37,0,0,1-3.94,1,7.91,7.91,0,0,1-2.88-.49A5.91,5.91,0,0,1,137,60.55a6,6,0,0,1-1.38-2.15,7.75,7.75,0,0,1,0-5.45A6.34,6.34,0,0,1,137,50.79a6.62,6.62,0,0,1,2.19-1.44,7.34,7.34,0,0,1,2.82-.52,6.65,6.65,0,0,1,3,.64,5.94,5.94,0,0,1,2.12,1.71,7,7,0,0,1,1.19,2.45,8.79,8.79,0,0,1,.26,2.87h-9.79A3.47,3.47,0,0,0,139.75,59ZM144,52.2a2.7,2.7,0,0,0-2-.7,3.44,3.44,0,0,0-1.49.29,2.88,2.88,0,0,0-.94.71,2.7,2.7,0,0,0-.5.9,3.86,3.86,0,0,0-.17.85h6.06A4,4,0,0,0,144,52.2Z" transform="translate(0 -0.88)"/><path class="cls-3" d="M154.45,49.18v2.4h.05a4.11,4.11,0,0,1,.71-1.11,4.52,4.52,0,0,1,1-.88,5.13,5.13,0,0,1,1.24-.56,4.71,4.71,0,0,1,1.36-.2,3.06,3.06,0,0,1,.81.12v3.3c-.17,0-.38-.06-.63-.08a5.69,5.69,0,0,0-.7,0,4.26,4.26,0,0,0-1.74.32,3.09,3.09,0,0,0-1.14.89,3.61,3.61,0,0,0-.62,1.31,7,7,0,0,0-.18,1.63V62.1H150.9V49.18Z" transform="translate(0 -0.88)"/><path class="cls-3" d="M161.17,53.15a4.1,4.1,0,0,1,.66-2.07,4.47,4.47,0,0,1,1.47-1.33,6.65,6.65,0,0,1,2-.71,12.05,12.05,0,0,1,2.24-.21,16.27,16.27,0,0,1,2.08.14,6.72,6.72,0,0,1,1.91.53A3.75,3.75,0,0,1,173,50.62a3,3,0,0,1,.55,1.88v6.73a12.77,12.77,0,0,0,.11,1.67,2.94,2.94,0,0,0,.36,1.2H170.2a6.09,6.09,0,0,1-.17-.61c0-.21-.07-.42-.09-.64a4.76,4.76,0,0,1-2.1,1.23,8.93,8.93,0,0,1-2.47.35,7,7,0,0,1-1.81-.23,4.17,4.17,0,0,1-1.47-.7,3.11,3.11,0,0,1-1-1.2,3.83,3.83,0,0,1-.36-1.72,3.62,3.62,0,0,1,.41-1.81,3.21,3.21,0,0,1,1.05-1.14,4.89,4.89,0,0,1,1.47-.64c.55-.14,1.11-.25,1.67-.34s1.11-.15,1.65-.2a10.61,10.61,0,0,0,1.45-.22,2.53,2.53,0,0,0,1-.44.92.92,0,0,0,.34-.84,1.84,1.84,0,0,0-.19-.91,1.39,1.39,0,0,0-.53-.52,2,2,0,0,0-.76-.25,5.49,5.49,0,0,0-.93-.07,2.91,2.91,0,0,0-1.73.45,2,2,0,0,0-.74,1.5Zm8.61,2.63a1.57,1.57,0,0,1-.59.31,5.27,5.27,0,0,1-.76.19c-.27,0-.55.09-.85.12l-.89.13a7.72,7.72,0,0,0-.83.2,2.23,2.23,0,0,0-.71.34,1.55,1.55,0,0,0-.67,1.36,1.55,1.55,0,0,0,.19.8,1.33,1.33,0,0,0,.49.51,2.09,2.09,0,0,0,.74.26,4.94,4.94,0,0,0,.87.08,3.45,3.45,0,0,0,1.7-.35,2.41,2.41,0,0,0,.89-.84,2.53,2.53,0,0,0,.36-1,7,7,0,0,0,.06-.8Z" transform="translate(0 -0.88)"/><path class="cls-3" d="M180.25,44.25V62.1h-3.72V44.25Z" transform="translate(0 -0.88)"/><path class="cls-3" d="M199.34,44.25a8.24,8.24,0,0,1,3,.49,5.81,5.81,0,0,1,2,1.29,5,5,0,0,1,1.13,1.82,6.7,6.7,0,0,1,.35,2.13,6.62,6.62,0,0,1-.35,2.11,5,5,0,0,1-1.13,1.84,5.81,5.81,0,0,1-2,1.29,8.26,8.26,0,0,1-3,.48H195v6.4h-4.13V44.25Zm-1.13,8.4a8.53,8.53,0,0,0,1.36-.1,3.17,3.17,0,0,0,1.16-.38,2.25,2.25,0,0,0,.8-.82,2.73,2.73,0,0,0,.3-1.37,2.77,2.77,0,0,0-.3-1.38,2.15,2.15,0,0,0-.8-.81,3.38,3.38,0,0,0-1.16-.39,9.88,9.88,0,0,0-1.36-.1H195v5.35Z" transform="translate(0 -0.88)"/><path class="cls-3" d="M211.33,49.18v2.4h0a4.36,4.36,0,0,1,.71-1.11,4.57,4.57,0,0,1,1-.88,4.89,4.89,0,0,1,1.23-.56,4.76,4.76,0,0,1,1.36-.2,3.19,3.19,0,0,1,.82.12v3.3c-.18,0-.39-.06-.63-.08a5.85,5.85,0,0,0-.71,0,4.24,4.24,0,0,0-1.73.32,3,3,0,0,0-1.15.89,3.59,3.59,0,0,0-.61,1.31,6.94,6.94,0,0,0-.19,1.63V62.1h-3.72V49.18Z" transform="translate(0 -0.88)"/><path class="cls-3" d="M218.06,53.15a4,4,0,0,1,.65-2.07,4.57,4.57,0,0,1,1.47-1.33,6.75,6.75,0,0,1,2-.71,12.16,12.16,0,0,1,2.25-.21,16.24,16.24,0,0,1,2.07.14,6.79,6.79,0,0,1,1.92.53,3.72,3.72,0,0,1,1.41,1.12,3,3,0,0,1,.56,1.88v6.73a12.81,12.81,0,0,0,.1,1.67,2.78,2.78,0,0,0,.37,1.2h-3.78a4.24,4.24,0,0,1-.17-.61,3.4,3.4,0,0,1-.09-.64,4.87,4.87,0,0,1-2.1,1.23,9,9,0,0,1-2.47.35,7,7,0,0,1-1.81-.23,4.17,4.17,0,0,1-1.47-.7,3.23,3.23,0,0,1-1-1.2,4,4,0,0,1-.35-1.72,3.62,3.62,0,0,1,.4-1.81,3.4,3.4,0,0,1,1.05-1.14,4.89,4.89,0,0,1,1.47-.64c.56-.14,1.11-.25,1.67-.34s1.11-.15,1.66-.2a10.45,10.45,0,0,0,1.44-.22,2.65,2.65,0,0,0,1-.44.94.94,0,0,0,.34-.84,1.83,1.83,0,0,0-.2-.91,1.37,1.37,0,0,0-.52-.52,2.06,2.06,0,0,0-.77-.25,5.41,5.41,0,0,0-.93-.07,2.94,2.94,0,0,0-1.73.45,2,2,0,0,0-.73,1.5Zm8.61,2.63a1.74,1.74,0,0,1-.59.31,5.63,5.63,0,0,1-.76.19c-.28,0-.56.09-.86.12l-.89.13a7.72,7.72,0,0,0-.83.2,2.17,2.17,0,0,0-.7.34,1.55,1.55,0,0,0-.49.53,1.73,1.73,0,0,0-.18.83,1.66,1.66,0,0,0,.18.8,1.36,1.36,0,0,0,.5.51,2,2,0,0,0,.73.26,4.94,4.94,0,0,0,.87.08,3.52,3.52,0,0,0,1.71-.35,2.42,2.42,0,0,0,1.24-1.83,5.51,5.51,0,0,0,.07-.8Z" transform="translate(0 -0.88)"/><path class="cls-3" d="M239.65,51.5a2.7,2.7,0,0,0-1.5.39,3.12,3.12,0,0,0-1,1,4,4,0,0,0-.54,1.35,6.66,6.66,0,0,0-.16,1.46,6.4,6.4,0,0,0,.16,1.43,4.31,4.31,0,0,0,.51,1.31,2.94,2.94,0,0,0,1,1,2.72,2.72,0,0,0,1.47.38,2.83,2.83,0,0,0,2.06-.71,3.4,3.4,0,0,0,.91-1.92h3.59a5.74,5.74,0,0,1-2.1,3.93,7,7,0,0,1-4.43,1.35,7.66,7.66,0,0,1-2.8-.49,6.26,6.26,0,0,1-2.17-1.36,6.42,6.42,0,0,1-1.39-2.09,7,7,0,0,1-.5-2.66A8.42,8.42,0,0,1,233.2,53a6.18,6.18,0,0,1,3.53-3.69,7.75,7.75,0,0,1,2.94-.52,9,9,0,0,1,2.33.3,6.24,6.24,0,0,1,2,.91,4.86,4.86,0,0,1,1.43,1.53,4.6,4.6,0,0,1,.63,2.16H242.4A2.46,2.46,0,0,0,239.65,51.5Z" transform="translate(0 -0.88)"/><path class="cls-3" d="M255.89,49.18v2.37h-2.73V58a1.67,1.67,0,0,0,.32,1.2,1.89,1.89,0,0,0,1.26.3l.6,0a4.54,4.54,0,0,0,.55-.08V62.1a7.81,7.81,0,0,1-1,.1l-1.13,0a12.31,12.31,0,0,1-1.64-.11,4,4,0,0,1-1.36-.44,2.31,2.31,0,0,1-.93-.93,3.12,3.12,0,0,1-.35-1.57V51.55h-2.25V49.18h2.25V45.3h3.73v3.88Z" transform="translate(0 -0.88)"/><path class="cls-3" d="M258,47.18V44.25h3.73v2.93Zm3.73,2V62.1H258V49.18Z" transform="translate(0 -0.88)"/><path class="cls-3" d="M271.08,51.5a2.7,2.7,0,0,0-1.5.39,3.12,3.12,0,0,0-1,1,4,4,0,0,0-.54,1.35,6.66,6.66,0,0,0-.16,1.46,6.4,6.4,0,0,0,.16,1.43,4.07,4.07,0,0,0,.51,1.31,2.94,2.94,0,0,0,1,1,2.72,2.72,0,0,0,1.47.38,2.83,2.83,0,0,0,2.06-.71,3.33,3.33,0,0,0,.9-1.92h3.6a5.74,5.74,0,0,1-2.1,3.93A7,7,0,0,1,271,62.43a7.64,7.64,0,0,1-2.79-.49,6,6,0,0,1-3.56-3.45,7,7,0,0,1-.5-2.66,8.42,8.42,0,0,1,.46-2.79,6.11,6.11,0,0,1,3.53-3.69,7.75,7.75,0,0,1,2.94-.52,9,9,0,0,1,2.33.3,6.35,6.35,0,0,1,2,.91,5,5,0,0,1,1.43,1.53,4.6,4.6,0,0,1,.63,2.16h-3.65A2.46,2.46,0,0,0,271.08,51.5Z" transform="translate(0 -0.88)"/><path class="cls-3" d="M283.79,59a3.95,3.95,0,0,0,4.35.24,2.23,2.23,0,0,0,1-1.14h3.28A6,6,0,0,1,290,61.43a7.37,7.37,0,0,1-3.94,1,8,8,0,0,1-2.89-.49,5.94,5.94,0,0,1-3.55-3.54,7.75,7.75,0,0,1,0-5.45,6.2,6.2,0,0,1,1.42-2.16,6.62,6.62,0,0,1,2.19-1.44,7.34,7.34,0,0,1,2.82-.52,6.65,6.65,0,0,1,3,.64,5.82,5.82,0,0,1,2.11,1.71,7,7,0,0,1,1.2,2.45,8.79,8.79,0,0,1,.26,2.87h-9.79A3.47,3.47,0,0,0,283.79,59ZM288,52.2a2.72,2.72,0,0,0-2-.7,3.42,3.42,0,0,0-1.48.29,2.77,2.77,0,0,0-.94.71,2.53,2.53,0,0,0-.5.9,3.36,3.36,0,0,0-.17.85h6.06A4,4,0,0,0,288,52.2Z" transform="translate(0 -0.88)"/></g><g id="Easyvisit"><path class="cls-4" d="M212.49,77.22V85.9a.12.12,0,0,1-.13.12h-1.67a.12.12,0,0,1-.13-.12v-.8a.12.12,0,0,0-.12-.13.18.18,0,0,0-.1,0,3.7,3.7,0,0,1-2.91,1.25,4.71,4.71,0,0,1,0-9.4,3.73,3.73,0,0,1,2.91,1.23.13.13,0,0,0,.18,0,.1.1,0,0,0,0-.09v-.78a.13.13,0,0,1,.13-.13h1.68A.13.13,0,0,1,212.49,77.22Zm-1.93,4.34a2.83,2.83,0,1,0-2.82,2.86,2.77,2.77,0,0,0,2.82-2.7Z" transform="translate(0 -0.88)"/><path class="cls-4" d="M220.74,83.5c0,1.79-1.56,2.76-3.49,2.76a3.74,3.74,0,0,1-3.59-2,.12.12,0,0,1,.05-.16l1.43-.84a.13.13,0,0,1,.17,0h0a2,2,0,0,0,1.93,1.16c.86,0,1.52-.29,1.52-1,0-1.59-4.81-.7-4.81-3.9,0-1.68,1.45-2.73,3.27-2.73a3.59,3.59,0,0,1,3.25,1.75.13.13,0,0,1,0,.17h0l-1.4.78a.11.11,0,0,1-.17,0h0a1.76,1.76,0,0,0-1.63-.9c-.69,0-1.3.3-1.3,1C215.93,81.18,220.74,80.2,220.74,83.5Z" transform="translate(0 -0.88)"/><path class="cls-4" d="M229.74,77.09a.13.13,0,0,1,.13.13.06.06,0,0,1,0,0l-3.37,9c-.82,2.22-2.24,3.37-4.24,3.29a.12.12,0,0,1-.12-.12V87.92a.12.12,0,0,1,.13-.12h0a2.25,2.25,0,0,0,2.25-1.75h0l.06-.12a.14.14,0,0,0,0-.11l-3.69-8.54a.13.13,0,0,1,.06-.17h1.88a.12.12,0,0,1,.12.08l2.51,6.1a.12.12,0,0,0,.23,0l2.15-6.09a.12.12,0,0,1,.12-.08Z" transform="translate(0 -0.88)"/><path class="cls-4" d="M239.48,77.26l-3.38,8.68A.13.13,0,0,1,236,86h-2.06a.13.13,0,0,1-.12-.08l-3.38-8.68a.11.11,0,0,1,.07-.16h1.88a.13.13,0,0,1,.12.08l2.35,6.39a.12.12,0,0,0,.16.07.14.14,0,0,0,.08-.07l2.33-6.39a.13.13,0,0,1,.12-.08h1.84a.12.12,0,0,1,.12.13A.06.06,0,0,1,239.48,77.26Z" transform="translate(0 -0.88)"/><path class="cls-4" d="M240.5,74.52a1.24,1.24,0,0,1,1.26-1.24,1.26,1.26,0,0,1,.73.23l0,0a1.24,1.24,0,0,1,.2,1.75,1.23,1.23,0,0,1-1.74.2A1.21,1.21,0,0,1,240.5,74.52Zm.39,2.57h1.68a.13.13,0,0,1,.13.13V85.9a.12.12,0,0,1-.13.12h-1.68a.12.12,0,0,1-.12-.12V77.22A.12.12,0,0,1,240.89,77.09Z" transform="translate(0 -0.88)"/><path class="cls-4" d="M251.17,83.5c0,1.79-1.55,2.76-3.48,2.76a3.76,3.76,0,0,1-3.6-2,.12.12,0,0,1,0-.16l1.44-.84a.13.13,0,0,1,.17,0h0a2,2,0,0,0,1.94,1.16c.85,0,1.52-.29,1.52-1,0-1.59-4.81-.7-4.81-3.9,0-1.68,1.45-2.73,3.27-2.73a3.58,3.58,0,0,1,3.24,1.75.12.12,0,0,1,0,.17h0l-1.39.78a.12.12,0,0,1-.18,0h0a1.74,1.74,0,0,0-1.62-.9c-.7,0-1.31.3-1.31,1C246.36,81.18,251.17,80.2,251.17,83.5Z" transform="translate(0 -0.88)"/><path class="cls-4" d="M252.25,74.52a1.24,1.24,0,0,1,1.26-1.24,1.26,1.26,0,0,1,.73.23l0,0a1.24,1.24,0,0,1-1.54,2A1.21,1.21,0,0,1,252.25,74.52Zm.39,2.57h1.68a.13.13,0,0,1,.13.13V85.9a.12.12,0,0,1-.13.12h-1.68a.12.12,0,0,1-.12-.12V77.22A.12.12,0,0,1,252.64,77.09Z" transform="translate(0 -0.88)"/><path class="cls-4" d="M259.57,79a.12.12,0,0,0-.12.12v4.17c0,1.11.7,1.12,2.08,1.06a.12.12,0,0,1,.13.12h0v1.49a.12.12,0,0,1-.11.13c-2.88.32-4-.51-4-2.8V79.07a.12.12,0,0,0-.13-.12H256a.13.13,0,0,1-.13-.13h0v-1.6a.13.13,0,0,1,.13-.13h1.39a.13.13,0,0,0,.13-.13V75.25a.14.14,0,0,1,.09-.12l1.68-.49a.12.12,0,0,1,.15.08s0,0,0,0V77a.12.12,0,0,0,.12.13h2a.12.12,0,0,1,.12.13v1.6a.12.12,0,0,1-.12.13h-2Z" transform="translate(0 -0.88)"/><path class="cls-4" d="M197.45,76.86a4.55,4.55,0,0,0-4.71,4.39,1.6,1.6,0,0,0,0,.31,5.63,5.63,0,0,0,0,.71.14.14,0,0,0,.13.11h8.85a.13.13,0,0,0,.12-.11,4,4,0,0,0,.06-.7,4.52,4.52,0,0,0-4.3-4.71Zm-2.56,4a.13.13,0,0,1-.12-.13v0a2.59,2.59,0,0,1,2.67-2,2.46,2.46,0,0,1,2.52,2,.12.12,0,0,1-.1.14h-5Z" transform="translate(0 -0.88)"/><path class="cls-5" d="M201.87,83.74l-1.16-.68a.31.31,0,0,0-.41.11h0l-.05.08a.31.31,0,0,0,.11.41l.16.1a.13.13,0,0,1,0,.19v0a4,4,0,0,1-5.6.79,3.94,3.94,0,0,1-.79-.79.16.16,0,0,1,0-.21h0l.16-.1a.31.31,0,0,0,.11-.41l0-.08a.31.31,0,0,0-.41-.11l-1.15.68a.29.29,0,0,0-.11.41h0l0,.08a.32.32,0,0,0,.42.11h0l.14-.09a.16.16,0,0,1,.19,0,4.69,4.69,0,0,0,6.55,1.08,4.81,4.81,0,0,0,1.08-1.08.16.16,0,0,1,.19,0l.14.09a.32.32,0,0,0,.42-.11l0-.08a.29.29,0,0,0-.1-.41Z" transform="translate(0 -0.88)"/><path class="cls-5" d="M178.58,83.4l-.88,2.65h-1l2.69-7.49h1.26l2.59,7.49h-1l-.89-2.65Zm2.51-.76L180,79.3l-1.16,3.34Z" transform="translate(0 -0.88)"/><path class="cls-5" d="M189,82.82v3.23h-.93V82.88c0-.29,0-.53,0-.82a1.19,1.19,0,0,0-1.16-1.19h-.16c-.9,0-1.66.68-1.66,2.64v2.53h-.93V80.3h.93v1l.36-.67a2.2,2.2,0,0,1,1.5-.48,1.82,1.82,0,0,1,2,1.57.49.49,0,0,1,0,.12C189,82.12,189,82.35,189,82.82Z" transform="translate(0 -0.88)"/><path class="cls-5" d="M275,78.25V86.1h-.93V78.25Z" transform="translate(0 -0.88)"/><path class="cls-5" d="M279.79,80.42v.9h0a2,2,0,0,1,1.85-1,2.5,2.5,0,0,1,.93.16,1.6,1.6,0,0,1,.61.43,1.59,1.59,0,0,1,.32.65,3.72,3.72,0,0,1,.1.84V86.1h-.94V82.25a1.09,1.09,0,0,0-.31-.83,1.12,1.12,0,0,0-.84-.31,1.9,1.9,0,0,0-.75.13,1.33,1.33,0,0,0-.52.38,1.61,1.61,0,0,0-.31.56,2.35,2.35,0,0,0-.11.71V86.1h-.93V80.42Z" transform="translate(0 -0.88)"/><path class="cls-5" d="M290.86,81.41a1.4,1.4,0,0,0-.94-.3,1.7,1.7,0,0,0-.85.19,1.42,1.42,0,0,0-.54.49,2.06,2.06,0,0,0-.3.71,4.58,4.58,0,0,0-.08.83,3.25,3.25,0,0,0,.09.77,2.13,2.13,0,0,0,.29.67,1.44,1.44,0,0,0,.52.46,1.5,1.5,0,0,0,.76.18,1.53,1.53,0,0,0,1.08-.36,1.64,1.64,0,0,0,.48-1h1a2.65,2.65,0,0,1-.79,1.62,2.48,2.48,0,0,1-1.72.58,3.14,3.14,0,0,1-1.15-.21,2.31,2.31,0,0,1-.84-.6,2.48,2.48,0,0,1-.5-.92,3.6,3.6,0,0,1-.17-1.17,4.17,4.17,0,0,1,.16-1.19,2.88,2.88,0,0,1,.5-1,2.57,2.57,0,0,1,.84-.65,2.73,2.73,0,0,1,1.18-.24,3.34,3.34,0,0,1,.91.12,2.37,2.37,0,0,1,.75.36,2,2,0,0,1,.53.61,2.12,2.12,0,0,1,.26.87h-1A1.43,1.43,0,0,0,290.86,81.41Z" transform="translate(0 -0.88)"/><path class="cls-5" d="M286.15,79.07a.58.58,0,0,1-.59.59.59.59,0,0,1-.6-.59.6.6,0,0,1,.6-.6h0a.58.58,0,0,1,.59.58Zm-1.06,7.05V80.36H286v5.76Z" transform="translate(0 -0.88)"/><path class="cls-5" d="M277.58,79.07a.59.59,0,0,1-.6.59.58.58,0,0,1-.59-.59.59.59,0,0,1,.59-.6h0a.58.58,0,0,1,.6.58Zm-1.06,7.05V80.36h.93v5.76Z" transform="translate(0 -0.88)"/><path class="cls-5" d="M271,79.36a2.44,2.44,0,0,0-1.43-.42,2.47,2.47,0,0,0-1.2.27,2.28,2.28,0,0,0-.83.71,3.25,3.25,0,0,0-.48,1,4.73,4.73,0,0,0-.15,1.19,5.2,5.2,0,0,0,.15,1.27,3.37,3.37,0,0,0,.48,1,2.59,2.59,0,0,0,.83.71,2.67,2.67,0,0,0,1.21.26,2.4,2.4,0,0,0,.92-.17,2.1,2.1,0,0,0,.7-.47,2.2,2.2,0,0,0,.45-.72,3,3,0,0,0,.2-.9h1a3.52,3.52,0,0,1-1,2.3,3.27,3.27,0,0,1-2.38.83,3.76,3.76,0,0,1-1.59-.31,3.15,3.15,0,0,1-1.13-.87,3.7,3.7,0,0,1-.68-1.29,5.59,5.59,0,0,1-.23-1.61,5.27,5.27,0,0,1,.25-1.61,3.82,3.82,0,0,1,.71-1.32,3.28,3.28,0,0,1,1.16-.88,3.72,3.72,0,0,1,1.6-.33,4.09,4.09,0,0,1,1.17.17,3.2,3.2,0,0,1,1,.48,2.74,2.74,0,0,1,.71.8,3,3,0,0,1,.38,1.1h-1.05A1.92,1.92,0,0,0,271,79.36Z" transform="translate(0 -0.88)"/></g></svg>