<svg id="Layer_1" data-name="Layer 1" xmlns="http://www.w3.org/2000/svg" viewBox="0 0 100.59523 96.46925"><defs><style>.cls-1{fill:#5705d8;}</style></defs><path class="cls-1" d="M98.93786,50.32464a1.93339,1.93339,0,0,1-.57,1.425,3.07174,3.07174,0,0,1-.76.42751,2.15143,2.15143,0,0,1-.76.1425,1.78948,1.78948,0,0,1-.7125-.1425,6.97176,6.97176,0,0,1-.8075-.42751L50.29761,6.52941,5.07738,51.74964a1.93337,1.93337,0,0,1-1.425.57,2.01547,2.01547,0,0,1-1.425-3.42L48.77761,2.15939a2.06624,2.06624,0,0,1,2.85,0L98.36786,48.89963A1.9334,1.9334,0,0,1,98.93786,50.32464Zm-14.25007,1.995a2.10855,2.10855,0,0,1,2.09,2.09V94.87987H58.27765V66.56972H42.12757V94.87987H13.81742V52.31965a2.20554,2.20554,0,0,1,.52251-1.47251,1.71593,1.71593,0,0,1,1.3775-.6175,2.10857,2.10857,0,0,1,2.09,2.09v38.5702h20.3301V62.3897H62.45768V90.88985h20.1401V54.40966a2.10855,2.10855,0,0,1,2.09-2.09ZM64.97519,9.14192a2.01027,2.01027,0,0,1-.6175-1.4725,1.71593,1.71593,0,0,1,.6175-1.37751,2.20553,2.20553,0,0,1,1.47251-.5225H82.59778V21.91949a2.2056,2.2056,0,0,1-.5225,1.47251,1.716,1.716,0,0,1-1.37751.6175,2.10855,2.10855,0,0,1-2.09-2.09V9.75943H66.4477A2.01029,2.01029,0,0,1,64.97519,9.14192Z"/></svg>