<svg id="Layer_1" data-name="Layer 1" xmlns="http://www.w3.org/2000/svg" viewBox="0 0 100.59867 100.60832"><defs><style>.cls-1{fill:#5705d8;}</style></defs><path class="cls-1" d="M98.93792,80.90065a10.89715,10.89715,0,0,1-2.51751,7.315,66.28991,66.28991,0,0,1-5.46253,5.985,9.12517,9.12517,0,0,0-1.045.80751,7.615,7.615,0,0,0-.855.9025,8.73337,8.73337,0,0,1-3.8,2.28,17.40875,17.40875,0,0,1-5.32.76,32.84646,32.84646,0,0,1-6.745-.76,54.22152,54.22152,0,0,1-7.695-2.28,66.3916,66.3916,0,0,1-9.025-4.085,101.17415,101.17415,0,0,1-9.12005-5.605q-4.56-3.135-9.12-6.935-4.465-3.8-8.83505-8.07505-4.275-4.37-8.075-8.835-3.8-4.56-6.935-9.12a101.17121,101.17121,0,0,1-5.605-9.12,74.20206,74.20206,0,0,1-4.085-9.025,42.0819,42.0819,0,0,1-3.04-14.39258q0-6.22253,3.04-9.16754a10.94208,10.94208,0,0,1,.80751-.90251q.4275-.4275.9025-.9975,2.85-2.85,5.985-5.51a10.20111,10.20111,0,0,1,7.315-2.47,11.53741,11.53741,0,0,1,5.7,1.85251,22.74783,22.74783,0,0,1,5.7,5.36753q8.265,10.35505,6.41253,15.29508a25.41519,25.41519,0,0,1-6.22253,9.21505l-.95.95q-.76.665.285,5.08253T44.21764,56.39053q4.085,4.085,7.55254,7.07753a46.76644,46.76644,0,0,0,6.31753,4.70253,29.0453,29.0453,0,0,0,4.275,2.28q2.565,1.14,3.895-.19l.95-.95a24.51369,24.51369,0,0,1,9.16754-6.27q4.89253-1.805,15.34258,6.65a22.47166,22.47166,0,0,1,5.27253,5.55752A12.10437,12.10437,0,0,1,98.93792,80.90065ZM88.67787,91.73071a52.101,52.101,0,0,0,4.89252-4.98753,8.0105,8.0105,0,0,0,2.13751-5.84253,8.50931,8.50931,0,0,0-1.5675-4.22752,18.93062,18.93062,0,0,0-4.51253-4.51252q-8.55-6.935-12.25506-5.84253t-7.695,5.27253l-1.14.95a5.37956,5.37956,0,0,1-4.94,1.615,18.51407,18.51407,0,0,1-7.41-3.135q-2.85-1.995-6.46-5.035t-7.79-7.315Q31.58258,48.31549,28.16256,41.85545t-.285-9.785l1.14-1.14q4.18-3.99,5.32-7.695t-5.89-12.25507A18.93057,18.93057,0,0,0,23.935,6.46777a8.5093,8.5093,0,0,0-4.22752-1.56751h-.38a8.40435,8.40435,0,0,0-5.51,2.28,58.7006,58.7006,0,0,0-4.94,4.75L7.88,12.9278l-.9025.90251q-2.28,2.28-2.04251,7.695A42.42867,42.42867,0,0,0,7.73745,33.97041a79.43643,79.43643,0,0,0,3.99,8.645q2.47,4.37,5.51,8.835t6.65,8.83505q3.705,4.465,7.79,8.645a110.30786,110.30786,0,0,0,8.64505,7.79q4.37,3.61,8.835,6.65t8.83505,5.51a79.43734,79.43734,0,0,0,8.645,3.99,41.52066,41.52066,0,0,0,12.39757,2.80251q5.46252.23749,7.74254-2.04251l.855-.855Z"/></svg>